<svg width="32" height="32" viewBox="0 0 32 32" fill="none" xmlns="http://www.w3.org/2000/svg">
<path d="M16 32C24.8366 32 32 24.8366 32 16C32 7.16344 24.8366 0 16 0C7.16344 0 0 7.16344 0 16C0 24.8366 7.16344 32 16 32Z" fill="#079A4B"/>
<path fill-rule="evenodd" clip-rule="evenodd" d="M16.0305 2.45942C14.2476 2.4565 12.4817 2.80548 10.834 3.48637C9.18621 4.16726 7.68904 5.16667 6.42829 6.4273C5.16753 7.68792 4.16797 9.18499 3.48691 10.8327C2.80586 12.4803 2.45669 14.2462 2.45943 16.0291C2.45943 23.4808 8.51783 29.5392 16.0305 29.5392C19.1827 29.5445 22.2368 28.4439 24.6611 26.4292C27.0854 24.4145 28.7263 21.6134 29.298 18.5135C29.4715 17.697 29.5529 16.8637 29.5406 16.0291C29.5507 15.6044 29.5303 15.1796 29.4796 14.7578H23.4822C25.0512 13.6466 26.8175 12.8444 28.6866 12.3941C26.6875 11.7286 24.2031 12.7587 22.8098 13.6058C18.569 16.2121 15.0559 20.6942 13.4796 25.4813C12.8528 25.2696 12.2448 25.0057 11.6621 24.6925C12.9078 21.8783 14.6527 19.3128 16.8124 17.1202C18.9932 14.9394 21.7188 13.1829 24.992 12.3941C23.0025 11.7286 20.453 12.7545 19.0597 13.6058C15.3027 15.8475 12.0323 19.4826 10.0927 23.5418C9.84133 23.3507 9.617 23.1264 9.4259 22.875C9.18659 22.6278 8.96426 22.3647 8.76044 22.0875C9.91112 20.392 11.3044 18.6341 12.9403 17.1202C15.2971 14.9394 18.2085 13.1829 21.4831 12.3941C19.5422 11.7286 16.818 12.8183 15.4247 13.6668C12.5771 15.3027 9.91112 17.665 7.79137 20.4516C7.53289 19.8403 7.31024 19.2145 7.12453 18.5773C10.2147 15.6091 13.9094 13.3091 17.848 12.3969C17.3443 12.2147 16.8051 12.1525 16.2731 12.2152C12.9459 12.3969 9.36628 14.8202 6.88192 16.9414C6.83127 16.641 6.81084 16.3363 6.82092 16.0319C6.82092 10.5793 10.9412 6.15684 16.0305 6.15684C19.423 6.15684 22.3912 8.15598 23.9661 11.1256H28.6312C27.6598 8.5721 25.9337 6.37507 23.6827 4.82693C21.4317 3.27879 18.7625 2.45298 16.0305 2.45942V2.45942ZM19.4229 18.5135H24.8755C23.8454 22.7544 20.2714 25.8446 16.0305 25.8446H15.4247C16.3391 23.1949 17.6905 20.717 19.4229 18.5135V18.5135Z" fill="#FFC812"/>
</svg>
